<svg xmlns="http://www.w3.org/2000/svg" viewBox="0 0 512 512"><defs><style>.cls-1{isolation:isolate;}.cls-2{fill:#009b9b;}.cls-3{fill:#00c2c2;}.cls-4{fill:#009a9a;}.cls-5{fill:#66cba9;}.cls-6{fill:#65c9a8;}.cls-7{fill:#7ffdd3;}.cls-8{fill:#4b66c0;}.cls-9{fill:#61a1c1;}.cls-10{fill:#61a1c0;}.cls-11{fill:#6286fc;}.cls-12{fill:#7fd3fd;}</style></defs><g id="Layer_4" data-name="Layer 4"><g class="cls-1"><polygon class="cls-2" points="168.24 351.58 203.48 331.11 203.46 337.63 168.22 358.11 168.24 351.58"/><polygon class="cls-3" points="162.56 348.31 168.24 351.58 168.22 358.11 162.55 354.83 162.56 348.31"/><polygon class="cls-4" points="162.56 348.31 197.8 327.83 203.48 331.11 168.24 351.58 162.56 348.31"/><polygon class="cls-2" points="162.62 328.75 197.86 308.27 197.8 327.83 162.56 348.31 162.62 328.75"/><polygon class="cls-3" points="156.94 325.47 162.62 328.75 162.56 348.31 156.89 345.03 156.94 325.47"/><polygon class="cls-4" points="156.94 325.47 192.18 304.99 197.86 308.27 162.62 328.75 156.94 325.47"/><polygon class="cls-3" points="168.2 364.63 168.22 358.11 224.97 390.87 224.96 397.39 168.2 364.63"/><polygon class="cls-2" points="224.97 390.87 260.21 370.39 260.2 376.92 224.96 397.39 224.97 390.87"/><polygon class="cls-4" points="168.22 358.11 203.46 337.63 260.21 370.39 224.97 390.87 168.22 358.11"/><polygon class="cls-5" points="224.99 384.35 260.23 363.87 260.21 370.39 224.97 390.87 224.99 384.35"/><polygon class="cls-4" points="224.99 384.35 260.23 363.87 265.91 367.15 230.67 387.63 224.99 384.35"/><polygon class="cls-5" points="230.72 368.07 265.96 347.59 265.91 367.15 230.67 387.63 230.72 368.07"/><polygon class="cls-4" points="230.72 368.07 265.96 347.59 271.64 350.87 236.4 371.35 230.72 368.07"/><polygon class="cls-6" points="196.74 322.32 231.98 301.84 249.01 311.67 213.77 332.15 196.74 322.32"/><polygon class="cls-2" points="213.79 325.63 249.03 305.15 249.01 311.67 213.77 332.15 213.79 325.63"/><polygon class="cls-2" points="157.26 214.61 192.5 194.13 192.18 304.99 156.94 325.47 157.26 214.61"/><polygon class="cls-4" points="140.24 204.78 175.48 184.3 192.5 194.13 157.26 214.61 140.24 204.78"/><polygon class="cls-2" points="140.35 165.65 175.59 145.17 175.48 184.3 140.24 204.78 140.35 165.65"/><polygon class="cls-6" points="191.09 312.52 226.33 292.04 232 295.32 196.76 315.8 191.09 312.52"/><polygon class="cls-5" points="191.31 234.27 226.55 213.79 226.33 292.04 191.09 312.52 191.31 234.27"/><polygon class="cls-2" points="196.97 244.07 232.21 223.59 232 295.32 196.76 315.8 196.97 244.07"/><polygon class="cls-6" points="140.35 165.65 175.59 145.17 192.61 155 157.37 175.48 140.35 165.65"/><polygon class="cls-4" points="134.69 155.85 169.93 135.37 186.95 145.2 151.71 165.68 134.69 155.85"/><polygon class="cls-2" points="157.46 142.87 192.7 122.39 192.61 155 157.37 175.48 157.46 142.87"/><polygon class="cls-4" points="191.31 234.27 226.55 213.79 266.28 236.73 231.04 257.21 191.31 234.27"/><polygon class="cls-7" points="191.52 162.54 191.43 195.14 231.15 218.07 231.04 257.21 191.31 234.27 191.09 312.52 196.76 315.8 196.74 322.32 213.77 332.15 213.79 325.63 236.49 338.74 236.4 371.35 230.72 368.07 230.67 387.63 224.99 384.35 224.97 390.87 168.22 358.11 168.24 351.58 162.56 348.31 162.62 328.75 156.94 325.47 157.26 214.61 140.24 204.78 140.35 165.65 157.37 175.48 157.46 142.87 191.52 162.54"/><polygon class="cls-2" points="230.67 387.63 265.91 367.15 265.89 373.67 230.65 394.15 230.67 387.63"/><polygon class="cls-3" points="224.97 390.87 224.99 384.35 230.67 387.63 230.65 394.15 224.97 390.87"/><polygon class="cls-5" points="196.76 315.8 232 295.32 231.98 301.84 196.74 322.32 196.76 315.8"/><polygon class="cls-3" points="230.67 387.63 230.72 368.07 236.4 371.35 236.34 390.9 230.67 387.63"/><polygon class="cls-2" points="236.4 371.35 271.64 350.87 271.58 370.43 236.34 390.9 236.4 371.35"/><polygon class="cls-4" points="196.76 315.8 232 295.32 249.03 305.15 213.79 325.63 196.76 315.8"/><polygon class="cls-3" points="213.77 332.15 196.74 322.32 196.76 315.8 213.79 325.63 213.77 332.15"/><polygon class="cls-6" points="213.79 325.63 249.03 305.15 271.73 318.26 236.49 338.74 213.79 325.63"/><polygon class="cls-5" points="236.49 338.74 271.73 318.26 271.64 350.87 236.4 371.35 236.49 338.74"/><polygon class="cls-2" points="242.19 335.49 277.43 315.01 277.32 354.14 242.08 374.62 242.19 335.49"/><polygon class="cls-4" points="213.81 319.11 249.05 298.63 277.43 315.01 242.19 335.49 213.81 319.11"/><polygon class="cls-3" points="213.81 319.11 242.19 335.49 242.08 374.62 236.4 371.35 236.49 338.74 213.79 325.63 213.81 319.11"/><polygon class="cls-5" points="191.52 162.54 226.76 142.06 226.66 174.66 191.43 195.14 191.52 162.54"/><polygon class="cls-6" points="157.46 142.87 192.7 122.39 226.76 142.06 191.52 162.54 157.46 142.87"/><polygon class="cls-5" points="231.15 218.07 266.39 197.6 266.28 236.73 231.04 257.21 231.15 218.07"/><polygon class="cls-6" points="191.43 195.14 226.66 174.66 266.39 197.6 231.15 218.07 191.43 195.14"/><polygon class="cls-4" points="151.8 133.07 187.04 112.6 232.44 138.81 197.21 159.29 151.8 133.07"/><polygon class="cls-2" points="197.21 159.29 232.44 138.81 232.35 171.41 197.11 191.89 197.21 159.29"/><polygon class="cls-2" points="236.84 214.83 272.08 194.35 271.94 246.53 236.7 267.01 236.84 214.83"/><polygon class="cls-3" points="140.24 204.78 157.26 214.61 156.94 325.47 151.27 322.19 151.56 217.85 134.54 208.03 134.69 155.85 151.71 165.68 151.8 133.07 197.21 159.29 197.11 191.89 236.84 214.83 236.7 267.01 196.97 244.07 196.76 315.8 191.09 312.52 191.31 234.27 231.04 257.21 231.15 218.07 191.43 195.14 191.52 162.54 157.46 142.87 157.37 175.48 140.35 165.65 140.24 204.78"/><polygon class="cls-4" points="197.11 191.89 232.35 171.41 272.08 194.35 236.84 214.83 197.11 191.89"/></g><g class="cls-1"><polygon class="cls-8" points="344.94 381.75 309.7 361.27 338.08 344.89 373.32 365.37 344.94 381.75"/><polygon class="cls-8" points="339.28 391.55 304.04 371.07 304.01 358.03 339.25 378.51 339.28 391.55"/><polygon class="cls-9" points="344.94 381.75 309.7 361.27 309.66 348.23 344.9 368.71 344.94 381.75"/><polygon class="cls-8" points="310.87 394.89 275.63 374.41 275.61 367.89 310.85 388.37 310.87 394.89"/><polygon class="cls-8" points="310.85 388.37 275.61 367.89 309.66 348.23 344.9 368.71 310.85 388.37"/><polygon class="cls-9" points="310.85 388.37 275.61 367.89 275.6 361.37 310.83 381.85 310.85 388.37"/><polygon class="cls-8" points="373.32 365.37 338.08 344.89 337.49 136.2 372.73 156.68 373.32 365.37"/><polygon class="cls-10" points="339.15 332.88 303.92 312.4 309.59 309.12 344.83 329.6 339.15 332.88"/><polygon class="cls-9" points="339.17 339.4 303.93 318.92 303.92 312.4 339.15 332.88 339.17 339.4"/><polygon class="cls-10" points="339.08 332.88 303.84 312.4 309.52 309.08 344.76 329.56 339.08 332.88"/><polygon class="cls-9" points="339.1 339.36 303.86 318.88 303.84 312.4 339.08 332.88 339.1 339.36"/><polygon class="cls-8" points="299.5 394.92 264.26 374.44 264.24 367.92 299.48 388.4 299.5 394.92"/><polygon class="cls-8" points="299.48 388.4 264.24 367.92 275.6 361.37 310.83 381.85 299.48 388.4"/><polygon class="cls-11" points="299.48 388.4 310.83 381.85 310.85 388.37 299.5 394.92 299.48 388.4"/><polygon class="cls-9" points="299.48 388.4 264.24 367.92 264.23 361.4 299.46 381.88 299.48 388.4"/><polygon class="cls-10" points="316.4 352.55 281.16 332.07 303.93 318.92 339.17 339.4 316.4 352.55"/><polygon class="cls-10" points="316.47 352.42 281.23 331.94 303.86 318.88 339.1 339.36 316.47 352.42"/><polygon class="cls-9" points="344.83 329.6 309.59 309.12 309.52 282.96 344.76 303.44 344.83 329.6"/><polygon class="cls-9" points="344.76 329.56 309.52 309.08 309.45 283.08 344.69 303.56 344.76 329.56"/><polygon class="cls-8" points="293.79 385.15 258.55 364.68 264.23 361.4 299.46 381.88 293.79 385.15"/><polygon class="cls-8" points="293.81 391.68 258.57 371.2 258.55 364.68 293.79 385.15 293.81 391.68"/><polygon class="cls-11" points="293.79 385.15 299.46 381.88 299.48 388.4 293.81 391.68 293.79 385.15"/><polygon class="cls-11" points="316.47 352.42 316.45 345.95 339.08 332.88 339.1 339.36 316.47 352.42"/><polygon class="cls-8" points="316.45 345.95 281.21 325.47 303.84 312.4 339.08 332.88 316.45 345.95"/><polygon class="cls-8" points="316.47 352.42 281.23 331.94 281.21 325.47 316.45 345.95 316.47 352.42"/><polygon class="cls-9" points="316.44 352.48 281.2 332 281.18 325.49 316.42 345.96 316.44 352.48"/><polygon class="cls-8" points="339.04 306.82 303.8 286.34 309.45 283.08 344.69 303.56 339.04 306.82"/><polygon class="cls-11" points="339.12 332.82 339.04 306.82 344.69 303.56 344.76 329.56 339.12 332.82"/><polygon class="cls-8" points="339.12 332.82 303.88 312.34 303.8 286.34 339.04 306.82 339.12 332.82"/><polygon class="cls-10" points="339.04 306.77 303.8 286.29 309.48 283.02 344.72 303.5 339.04 306.77"/><polygon class="cls-9" points="293.79 385.15 258.55 364.68 258.53 358.15 293.77 378.63 293.79 385.15"/><polygon class="cls-10" points="310.7 349.3 275.46 328.82 281.14 325.54 316.38 346.02 310.7 349.3"/><polygon class="cls-10" points="310.78 349.18 275.54 328.7 281.18 325.44 316.42 345.92 310.78 349.18"/><polygon class="cls-9" points="339.08 306.71 303.84 286.23 303.82 279.71 339.06 300.19 339.08 306.71"/><polygon class="cls-9" points="339.04 306.82 303.8 286.34 303.75 279.83 338.99 300.31 339.04 306.82"/><polygon class="cls-8" points="288.11 388.43 252.87 367.95 252.85 361.43 288.09 381.91 288.11 388.43"/><polygon class="cls-11" points="288.09 381.91 293.77 378.63 293.79 385.15 288.11 388.43 288.09 381.91"/><polygon class="cls-8" points="288.09 381.91 252.85 361.43 258.53 358.15 293.77 378.63 288.09 381.91"/><polygon class="cls-9" points="288.09 381.91 252.85 361.43 252.82 348.38 288.06 368.86 288.09 381.91"/><polygon class="cls-8" points="282.43 385.18 247.19 364.7 247.15 351.66 282.39 372.14 282.43 385.18"/><polygon class="cls-11" points="282.39 372.14 288.06 368.86 288.09 381.91 282.43 385.18 282.39 372.14"/><polygon class="cls-8" points="282.39 372.14 247.15 351.66 252.82 348.38 288.06 368.86 282.39 372.14"/><polygon class="cls-8" points="310.78 349.18 275.54 328.7 275.47 302.7 310.71 323.18 310.78 349.18"/><polygon class="cls-11" points="310.78 349.18 310.71 323.18 316.35 319.92 316.42 345.92 310.78 349.18"/><polygon class="cls-8" points="310.71 323.18 275.47 302.7 281.11 299.44 316.35 319.92 310.71 323.18"/><polygon class="cls-8" points="316.36 313.38 281.12 292.9 303.75 279.83 338.99 300.31 316.36 313.38"/><path class="cls-12" d="M339,300.25l0,6.52,5.68-3.28.07,26.09-5.67,3.28v6.51l-22.69,13.11,0-6.52-5.68,3.28-.07-26.09,5.67-3.27v-6.53Zm5.67,3.31L339,306.82l-.05-6.51-22.63,13.07,0,6.48-5.67,3.32.07,26,5.64-3.26.05,6.5,22.63-13.06,0-6.48,5.68-3.32-.07-26"/><polygon class="cls-11" points="316.38 319.86 316.36 313.38 338.99 300.31 339.01 306.79 316.38 319.86"/><polygon class="cls-8" points="316.38 319.86 281.14 299.38 281.12 292.9 316.36 313.38 316.38 319.86"/><polygon class="cls-10" points="310.67 323.15 275.43 302.67 281.11 299.4 316.35 319.88 310.67 323.15"/><polygon class="cls-9" points="310.74 349.24 275.5 328.76 275.43 302.67 310.67 323.15 310.74 349.24"/><polygon class="cls-10" points="316.33 313.35 281.09 292.88 303.78 279.77 339.02 300.25 316.33 313.35"/><polygon class="cls-9" points="316.35 319.88 281.11 299.4 281.09 292.88 316.33 313.35 316.35 319.88"/><polygon class="cls-9" points="282.39 372.14 247.15 351.66 247.04 312.53 282.28 333.01 282.39 372.14"/><polygon class="cls-10" points="282.28 333.01 247.04 312.53 252.71 309.26 287.95 329.74 282.28 333.01"/><polygon class="cls-9" points="310.58 290.55 275.34 270.07 275.32 263.55 310.56 284.03 310.58 290.55"/><polygon class="cls-10" points="310.56 284.03 275.32 263.55 309.37 243.89 344.61 264.37 310.56 284.03"/><polygon class="cls-8" points="276.6 336.29 241.36 315.81 247.04 312.53 282.28 333.01 276.6 336.29"/><polygon class="cls-8" points="276.71 375.42 241.47 354.94 241.36 315.81 276.6 336.29 276.71 375.42"/><polygon class="cls-11" points="276.6 336.29 282.28 333.01 282.39 372.14 276.71 375.42 276.6 336.29"/><polygon class="cls-9" points="287.95 329.74 252.71 309.26 252.67 296.22 287.91 316.69 287.95 329.74"/><polygon class="cls-10" points="287.91 316.69 252.67 296.22 258.35 292.94 293.58 313.42 287.91 316.69"/><polygon class="cls-9" points="293.58 313.42 258.35 292.94 258.33 286.42 293.57 306.9 293.58 313.42"/><polygon class="cls-10" points="293.57 306.9 258.33 286.42 264 283.14 299.24 303.62 293.57 306.9"/><polygon class="cls-10" points="299.22 297.1 263.99 276.63 275.34 270.07 310.58 290.55 299.22 297.1"/><polygon class="cls-9" points="299.24 303.62 264 283.14 263.99 276.63 299.22 297.1 299.24 303.62"/><polygon class="cls-8" points="310.56 284.03 275.32 263.55 275.3 257.03 310.54 277.51 310.56 284.03"/><polygon class="cls-8" points="310.54 277.51 275.3 257.03 303.67 240.65 338.91 261.12 310.54 277.51"/><polygon class="cls-8" points="282.24 319.97 247 299.49 252.67 296.22 287.91 316.69 282.24 319.97"/><polygon class="cls-11" points="287.91 316.69 287.95 329.74 282.28 333.01 282.24 319.97 287.91 316.69"/><polygon class="cls-8" points="282.28 333.01 247.04 312.53 247 299.49 282.24 319.97 282.28 333.01"/><polygon class="cls-8" points="287.91 316.69 252.67 296.22 252.65 289.69 287.89 310.17 287.91 316.69"/><polygon class="cls-11" points="293.57 306.9 293.58 313.42 287.91 316.69 287.89 310.17 293.57 306.9"/><polygon class="cls-8" points="287.89 310.17 252.65 289.69 258.33 286.42 293.57 306.9 287.89 310.17"/><polygon class="cls-8" points="293.55 300.38 258.31 279.9 263.99 276.63 299.22 297.1 293.55 300.38"/><polygon class="cls-11" points="299.22 297.1 299.24 303.62 293.57 306.9 293.55 300.38 299.22 297.1"/><polygon class="cls-8" points="293.57 306.9 258.33 286.42 258.31 279.9 293.55 300.38 293.57 306.9"/><polygon class="cls-8" points="299.21 290.58 263.97 270.1 275.32 263.55 310.56 284.03 299.21 290.58"/><polygon class="cls-8" points="299.22 297.1 263.99 276.63 263.97 270.1 299.21 290.58 299.22 297.1"/><polygon class="cls-11" points="310.56 284.03 310.58 290.55 299.22 297.1 299.21 290.58 310.56 284.03"/><polygon class="cls-10" points="344.35 173.07 309.11 152.59 337.49 136.2 372.73 156.68 344.35 173.07"/><polygon class="cls-9" points="344.61 264.37 309.37 243.89 309.11 152.59 344.35 173.07 344.61 264.37"/><path class="cls-12" d="M344.35,173.07l28.38-16.39.59,208.69-28.38,16.38,0-13-34,19.66v-6.53l-11.36,6.56,0-6.52-5.67,3.27,0-6.52-5.68,3.28,0-13.05-5.67,3.28L282.28,333l5.67-3.27,0-13.05,5.68-3.27,0-6.52,5.67-3.28,0-6.52,11.36-6.55,0-6.52,34.05-19.66Zm.48,156.53-.07-26.16-5.68,3.27,0-6.52-22.77,13.15,0,6.52-5.68,3.28.07,26.16,5.68-3.28,0,6.53,22.77-13.15,0-6.53,5.68-3.27"/><polygon class="cls-8" points="338.91 261.12 303.67 240.65 303.41 149.34 338.65 169.82 338.91 261.12"/><polygon class="cls-11" points="338.65 169.82 378.39 146.88 379.01 368.61 339.28 391.55 339.25 378.51 310.87 394.89 310.85 388.37 344.9 368.71 344.94 381.75 373.32 365.37 372.73 156.68 344.35 173.07 344.61 264.37 310.56 284.03 310.54 277.51 338.91 261.12 338.65 169.82"/><polygon class="cls-8" points="338.65 169.82 303.41 149.34 343.15 126.4 378.39 146.88 338.65 169.82"/></g></g></svg>